<svg width="19" height="19" viewBox="0 0 19 19" fill="none" xmlns="http://www.w3.org/2000/svg">
<path d="M1.87861 7.37108C1.86484 7.38485 1.85411 7.40051 1.84291 7.41572L1.83844 7.41125L0.371432 8.87826C0.201964 9.04773 0.213314 9.33443 0.397286 9.5184L0.398056 9.51917L8.97961 18.101C8.98007 18.1015 8.98053 18.1019 8.98099 18.1024C9.16481 18.2862 9.45137 18.2977 9.62083 18.1282L11.1282 16.6209C11.2976 16.4514 11.286 16.165 11.1022 15.9812C11.1017 15.9808 11.1011 15.9804 11.1006 15.98L2.51909 7.39813C2.51878 7.39783 2.51862 7.39738 2.51846 7.39722C2.33449 7.21325 2.04794 7.20176 1.87861 7.37108Z" fill="white"/>
<path d="M8.97977 0.398526L0.398073 8.98022L0.397162 8.98085C0.21319 9.16482 0.201698 9.45138 0.371024 9.6207C0.384791 9.63447 0.400454 9.6452 0.415655 9.6564L0.41119 9.66087L1.87834 11.128C2.04781 11.2975 2.33437 11.286 2.51834 11.102L2.51911 11.1013L11.1009 2.5197L11.1023 2.51832C11.2861 2.3345 11.2976 2.04794 11.1282 1.87848L9.62114 0.37144C9.45167 0.201973 9.16525 0.213607 8.98143 0.397425L8.97977 0.398526Z" fill="white"/>
</svg>
