<svg width="19" height="19" viewBox="0 0 19 19" fill="none" xmlns="http://www.w3.org/2000/svg">
<path d="M16.6208 11.1283C16.6345 11.1145 16.6453 11.0989 16.6565 11.0837L16.6609 11.0881L18.128 9.62113C18.2974 9.45166 18.2861 9.16496 18.1021 8.98099L18.1013 8.98022L9.51978 0.398383C9.51932 0.397921 9.51886 0.397461 9.5184 0.396999C9.33458 0.213181 9.04802 0.201688 8.87856 0.371156L7.37123 1.87848C7.20177 2.04794 7.2134 2.33436 7.39722 2.51818C7.39768 2.51864 7.39828 2.51896 7.39875 2.51942L15.9803 11.1013C15.9806 11.1016 15.9808 11.102 15.9809 11.1022C16.1649 11.2861 16.4515 11.2976 16.6208 11.1283Z" fill="white"/>
<path d="M9.51962 18.1009L18.1013 9.51917L18.1022 9.51854C18.2862 9.33457 18.2977 9.04801 18.1284 8.87869C18.1146 8.86492 18.0989 8.85419 18.0837 8.84299L18.0882 8.83852L16.621 7.37137C16.4516 7.2019 16.165 7.21339 15.981 7.39736L15.9803 7.39813L7.39844 15.9797L7.39706 15.9811C7.21324 16.1649 7.20175 16.4514 7.37122 16.6209L8.87825 18.1279C9.04772 18.2974 9.33414 18.2858 9.51795 18.102L9.51962 18.1009Z" fill="white"/>
</svg>
